<svg id="visual" viewBox="0 0 960 540" width="960" height="540" xmlns="http://www.w3.org/2000/svg" xmlns:xlink="http://www.w3.org/1999/xlink" version="1.1"><rect x="0" y="0" width="960" height="540" fill="#ffffff"></rect><path d="M0 371L87 370L175 439L262 385L349 354L436 415L524 408L611 414L698 357L785 435L873 401L960 358L960 541L873 541L785 541L698 541L611 541L524 541L436 541L349 541L262 541L175 541L87 541L0 541Z" fill="#4facf7"></path><path d="M0 455L87 431L175 422L262 414L349 392L436 421L524 400L611 460L698 383L785 430L873 434L960 425L960 541L873 541L785 541L698 541L611 541L524 541L436 541L349 541L262 541L175 541L87 541L0 541Z" fill="#008cff"></path><path d="M0 462L87 436L175 457L262 438L349 420L436 475L524 451L611 467L698 457L785 462L873 425L960 413L960 541L873 541L785 541L698 541L611 541L524 541L436 541L349 541L262 541L175 541L87 541L0 541Z" fill="#0066ff"></path><path d="M0 469L87 454L175 438L262 474L349 454L436 494L524 444L611 448L698 482L785 443L873 467L960 442L960 541L873 541L785 541L698 541L611 541L524 541L436 541L349 541L262 541L175 541L87 541L0 541Z" fill="#0066ff"></path><path d="M0 474L87 481L175 505L262 502L349 478L436 466L524 485L611 507L698 483L785 487L873 502L960 505L960 541L873 541L785 541L698 541L611 541L524 541L436 541L349 541L262 541L175 541L87 541L0 541Z" fill="#008cff"></path><path d="M0 500L87 490L175 523L262 496L349 519L436 510L524 524L611 493L698 505L785 496L873 491L960 521L960 541L873 541L785 541L698 541L611 541L524 541L436 541L349 541L262 541L175 541L87 541L0 541Z" fill="#4facf7"></path></svg>