<svg id="visual" viewBox="0 0 960 540" width="960" height="540" xmlns="http://www.w3.org/2000/svg" xmlns:xlink="http://www.w3.org/1999/xlink" version="1.1"><rect x="0" y="0" width="960" height="540" fill="#ffffff"></rect><path d="M0 371L9.3 378.5C18.7 386 37.3 401 56.2 392.2C75 383.3 94 350.7 112.8 331.5C131.7 312.3 150.3 306.7 169.2 312.7C188 318.7 207 336.3 225.8 341.5C244.7 346.7 263.3 339.3 282.2 338.2C301 337 320 342 338.8 349.7C357.7 357.3 376.3 367.7 395.2 366.7C414 365.7 433 353.3 451.8 354.3C470.7 355.3 489.3 369.7 508.2 378.5C527 387.3 546 390.7 564.8 381.3C583.7 372 602.3 350 621.2 352.5C640 355 659 382 677.8 379.8C696.7 377.7 715.3 346.3 734.2 337C753 327.7 772 340.3 790.8 352C809.7 363.7 828.3 374.3 847.2 379C866 383.7 885 382.3 903.8 385.3C922.7 388.3 941.3 395.7 950.7 399.3L960 403L960 541L950.7 541C941.3 541 922.7 541 903.8 541C885 541 866 541 847.2 541C828.3 541 809.7 541 790.8 541C772 541 753 541 734.2 541C715.3 541 696.7 541 677.8 541C659 541 640 541 621.2 541C602.3 541 583.7 541 564.8 541C546 541 527 541 508.2 541C489.3 541 470.7 541 451.8 541C433 541 414 541 395.2 541C376.3 541 357.7 541 338.8 541C320 541 301 541 282.2 541C263.3 541 244.7 541 225.8 541C207 541 188 541 169.2 541C150.3 541 131.7 541 112.8 541C94 541 75 541 56.2 541C37.3 541 18.7 541 9.3 541L0 541Z" fill="#9bd2ff"></path><path d="M0 431L9.3 422.3C18.7 413.7 37.3 396.3 56.2 389.5C75 382.7 94 386.3 112.8 381.2C131.7 376 150.3 362 169.2 353.5C188 345 207 342 225.8 354.8C244.7 367.7 263.3 396.3 282.2 410.5C301 424.7 320 424.3 338.8 411C357.7 397.7 376.3 371.3 395.2 370.8C414 370.3 433 395.7 451.8 403C470.7 410.3 489.3 399.7 508.2 402C527 404.3 546 419.7 564.8 411.8C583.7 404 602.3 373 621.2 365.2C640 357.3 659 372.7 677.8 373.3C696.7 374 715.3 360 734.2 366.3C753 372.7 772 399.3 790.8 407.7C809.7 416 828.3 406 847.2 397.8C866 389.7 885 383.3 903.8 376.5C922.7 369.7 941.3 362.3 950.7 358.7L960 355L960 541L950.7 541C941.3 541 922.7 541 903.8 541C885 541 866 541 847.2 541C828.3 541 809.7 541 790.8 541C772 541 753 541 734.2 541C715.3 541 696.7 541 677.8 541C659 541 640 541 621.2 541C602.3 541 583.7 541 564.8 541C546 541 527 541 508.2 541C489.3 541 470.7 541 451.8 541C433 541 414 541 395.2 541C376.3 541 357.7 541 338.8 541C320 541 301 541 282.2 541C263.3 541 244.7 541 225.8 541C207 541 188 541 169.2 541C150.3 541 131.7 541 112.8 541C94 541 75 541 56.2 541C37.3 541 18.7 541 9.3 541L0 541Z" fill="#6dbaff"></path><path d="M0 413L9.3 415.8C18.7 418.7 37.3 424.3 56.2 424.8C75 425.3 94 420.7 112.8 423.8C131.7 427 150.3 438 169.2 442.2C188 446.3 207 443.7 225.8 445.5C244.7 447.3 263.3 453.7 282.2 452.5C301 451.3 320 442.7 338.8 434.5C357.7 426.3 376.3 418.7 395.2 424.7C414 430.7 433 450.3 451.8 449.8C470.7 449.3 489.3 428.7 508.2 414.8C527 401 546 394 564.8 389.3C583.7 384.7 602.3 382.3 621.2 396.8C640 411.3 659 442.7 677.8 442.8C696.7 443 715.3 412 734.2 396.3C753 380.7 772 380.3 790.8 382.5C809.7 384.7 828.3 389.3 847.2 393.2C866 397 885 400 903.8 400.3C922.7 400.7 941.3 398.3 950.7 397.2L960 396L960 541L950.7 541C941.3 541 922.7 541 903.8 541C885 541 866 541 847.2 541C828.3 541 809.7 541 790.8 541C772 541 753 541 734.2 541C715.3 541 696.7 541 677.8 541C659 541 640 541 621.2 541C602.3 541 583.7 541 564.8 541C546 541 527 541 508.2 541C489.3 541 470.7 541 451.8 541C433 541 414 541 395.2 541C376.3 541 357.7 541 338.8 541C320 541 301 541 282.2 541C263.3 541 244.7 541 225.8 541C207 541 188 541 169.2 541C150.3 541 131.7 541 112.8 541C94 541 75 541 56.2 541C37.3 541 18.7 541 9.3 541L0 541Z" fill="#39a1ff"></path><path d="M0 438L9.3 441.3C18.7 444.7 37.3 451.3 56.2 460C75 468.7 94 479.3 112.8 473.5C131.7 467.7 150.3 445.3 169.2 439.2C188 433 207 443 225.8 453.3C244.7 463.7 263.3 474.3 282.2 471C301 467.7 320 450.3 338.8 443.3C357.7 436.3 376.3 439.7 395.2 445C414 450.3 433 457.7 451.8 458.2C470.7 458.7 489.3 452.3 508.2 448.2C527 444 546 442 564.8 450.7C583.7 459.3 602.3 478.7 621.2 475.7C640 472.7 659 447.3 677.8 446.7C696.7 446 715.3 470 734.2 479.7C753 489.3 772 484.7 790.8 478.8C809.7 473 828.3 466 847.2 456.7C866 447.3 885 435.7 903.8 435.3C922.7 435 941.3 446 950.7 451.5L960 457L960 541L950.7 541C941.3 541 922.7 541 903.8 541C885 541 866 541 847.2 541C828.3 541 809.7 541 790.8 541C772 541 753 541 734.2 541C715.3 541 696.7 541 677.8 541C659 541 640 541 621.2 541C602.3 541 583.7 541 564.8 541C546 541 527 541 508.2 541C489.3 541 470.7 541 451.8 541C433 541 414 541 395.2 541C376.3 541 357.7 541 338.8 541C320 541 301 541 282.2 541C263.3 541 244.7 541 225.8 541C207 541 188 541 169.2 541C150.3 541 131.7 541 112.8 541C94 541 75 541 56.2 541C37.3 541 18.7 541 9.3 541L0 541Z" fill="#0086ff"></path><path d="M0 491L9.3 492.3C18.7 493.7 37.3 496.3 56.2 492C75 487.7 94 476.3 112.8 473C131.7 469.7 150.3 474.3 169.2 477.3C188 480.3 207 481.7 225.8 480.2C244.7 478.7 263.3 474.3 282.2 476.8C301 479.3 320 488.7 338.8 494.7C357.7 500.7 376.3 503.3 395.2 498.2C414 493 433 480 451.8 477C470.7 474 489.3 481 508.2 485.7C527 490.3 546 492.7 564.8 490.5C583.7 488.3 602.3 481.7 621.2 484.8C640 488 659 501 677.8 501C696.7 501 715.3 488 734.2 485.3C753 482.7 772 490.3 790.8 492C809.7 493.7 828.3 489.3 847.2 493.8C866 498.3 885 511.7 903.8 512.5C922.7 513.3 941.3 501.7 950.7 495.8L960 490L960 541L950.7 541C941.3 541 922.7 541 903.8 541C885 541 866 541 847.2 541C828.3 541 809.7 541 790.8 541C772 541 753 541 734.2 541C715.3 541 696.7 541 677.8 541C659 541 640 541 621.2 541C602.3 541 583.7 541 564.8 541C546 541 527 541 508.2 541C489.3 541 470.7 541 451.8 541C433 541 414 541 395.2 541C376.3 541 357.7 541 338.8 541C320 541 301 541 282.2 541C263.3 541 244.7 541 225.8 541C207 541 188 541 169.2 541C150.3 541 131.7 541 112.8 541C94 541 75 541 56.2 541C37.3 541 18.7 541 9.3 541L0 541Z" fill="#0066ff"></path></svg>