<svg id="visual" viewBox="0 0 960 540" width="960" height="540" xmlns="http://www.w3.org/2000/svg" xmlns:xlink="http://www.w3.org/1999/xlink" version="1.1"><g stroke-width="1" stroke-linejoin="bevel"><path d="M454.2 267L394.3 262L419.8 290Z" fill="#2399fd" stroke="#2399fd"></path><path d="M358.8 276L423.3 317L419.8 290Z" fill="#0066ff" stroke="#0066ff"></path><path d="M419.8 290L423.3 317L454.2 267Z" fill="#0076ff" stroke="#0076ff"></path><path d="M521.7 313L481.8 235L454.2 267Z" fill="#33a0fb" stroke="#33a0fb"></path><path d="M454.2 267L410.3 188L394.3 262Z" fill="#41a6f9" stroke="#41a6f9"></path><path d="M394.3 262L358.8 276L419.8 290Z" fill="#0066ff" stroke="#0066ff"></path><path d="M435.3 183L410.3 188L454.2 267Z" fill="#0085ff" stroke="#0085ff"></path><path d="M394.3 262L353.8 169L358.8 276Z" fill="#4facf7" stroke="#4facf7"></path><path d="M481.8 235L435.3 183L454.2 267Z" fill="#41a6f9" stroke="#41a6f9"></path><path d="M369.3 370L460.2 360L423.3 317Z" fill="#41a6f9" stroke="#41a6f9"></path><path d="M423.3 317L500.8 337L454.2 267Z" fill="#007eff" stroke="#007eff"></path><path d="M460.2 360L500.8 337L423.3 317Z" fill="#2399fd" stroke="#2399fd"></path><path d="M500.8 337L521.7 313L454.2 267Z" fill="#008cff" stroke="#008cff"></path><path d="M411.8 120L353.8 169L410.3 188Z" fill="#1393fe" stroke="#1393fe"></path><path d="M410.3 188L353.8 169L394.3 262Z" fill="#0066ff" stroke="#0066ff"></path><path d="M358.8 276L369.3 370L423.3 317Z" fill="#1393fe" stroke="#1393fe"></path><path d="M460.2 360L495.2 366L500.8 337Z" fill="#1393fe" stroke="#1393fe"></path><path d="M500.8 337L574.2 324L521.7 313Z" fill="#2399fd" stroke="#2399fd"></path><path d="M474.8 395L495.2 366L460.2 360Z" fill="#33a0fb" stroke="#33a0fb"></path><path d="M557.2 266L517.7 171L481.8 235Z" fill="#0085ff" stroke="#0085ff"></path><path d="M481.8 235L517.7 171L435.3 183Z" fill="#41a6f9" stroke="#41a6f9"></path><path d="M435.3 183L411.8 120L410.3 188Z" fill="#006eff" stroke="#006eff"></path><path d="M353.8 169L296.8 233L358.8 276Z" fill="#2399fd" stroke="#2399fd"></path><path d="M358.8 276L345.3 377L369.3 370Z" fill="#007eff" stroke="#007eff"></path><path d="M517.7 171L456.8 132L435.3 183Z" fill="#33a0fb" stroke="#33a0fb"></path><path d="M574.2 324L557.2 266L521.7 313Z" fill="#0076ff" stroke="#0076ff"></path><path d="M521.7 313L557.2 266L481.8 235Z" fill="#007eff" stroke="#007eff"></path><path d="M296.8 233L288.4 282L358.8 276Z" fill="#0066ff" stroke="#0066ff"></path><path d="M456.8 132L411.8 120L435.3 183Z" fill="#006eff" stroke="#006eff"></path><path d="M283.8 306L345.3 377L358.8 276Z" fill="#0076ff" stroke="#0076ff"></path><path d="M423.8 408L474.8 395L460.2 360Z" fill="#41a6f9" stroke="#41a6f9"></path><path d="M423.8 408L460.2 360L369.3 370Z" fill="#008cff" stroke="#008cff"></path><path d="M336.8 393L423.8 408L369.3 370Z" fill="#33a0fb" stroke="#33a0fb"></path><path d="M248.4 258L283.8 306L288.4 282Z" fill="#33a0fb" stroke="#33a0fb"></path><path d="M288.4 282L283.8 306L358.8 276Z" fill="#008cff" stroke="#008cff"></path><path d="M277.4 345L336.8 393L345.3 377Z" fill="#2399fd" stroke="#2399fd"></path><path d="M345.3 377L336.8 393L369.3 370Z" fill="#4facf7" stroke="#4facf7"></path><path d="M606.7 373L574.2 324L495.2 366Z" fill="#0085ff" stroke="#0085ff"></path><path d="M495.2 366L574.2 324L500.8 337Z" fill="#008cff" stroke="#008cff"></path><path d="M338.8 94L318.4 135L353.8 169Z" fill="#007eff" stroke="#007eff"></path><path d="M353.8 169L318.4 135L296.8 233Z" fill="#0076ff" stroke="#0076ff"></path><path d="M456.8 132L433.3 93L411.8 120Z" fill="#41a6f9" stroke="#41a6f9"></path><path d="M411.8 120L338.8 94L353.8 169Z" fill="#008cff" stroke="#008cff"></path><path d="M466.2 81L433.3 93L456.8 132Z" fill="#4facf7" stroke="#4facf7"></path><path d="M283.8 306L277.4 345L345.3 377Z" fill="#1393fe" stroke="#1393fe"></path><path d="M237.4 254L248.4 258L296.8 233Z" fill="#007eff" stroke="#007eff"></path><path d="M296.8 233L248.4 258L288.4 282Z" fill="#0076ff" stroke="#0076ff"></path><path d="M283.8 306L183.9 291L277.4 345Z" fill="#008cff" stroke="#008cff"></path><path d="M628.2 271L597.7 224L557.2 266Z" fill="#007eff" stroke="#007eff"></path><path d="M557.2 266L597.7 224L517.7 171Z" fill="#1393fe" stroke="#1393fe"></path><path d="M517.7 171L489.8 94L456.8 132Z" fill="#0085ff" stroke="#0085ff"></path><path d="M591.7 133L547.2 132L517.7 171Z" fill="#2399fd" stroke="#2399fd"></path><path d="M547.2 132L489.8 94L517.7 171Z" fill="#4facf7" stroke="#4facf7"></path><path d="M489.8 94L466.2 81L456.8 132Z" fill="#0076ff" stroke="#0076ff"></path><path d="M433.3 93L373.3 82L411.8 120Z" fill="#006eff" stroke="#006eff"></path><path d="M360.8 42L373.3 82L433.3 93Z" fill="#006eff" stroke="#006eff"></path><path d="M373.3 82L338.8 94L411.8 120Z" fill="#006eff" stroke="#006eff"></path><path d="M215.9 190L237.4 254L296.8 233Z" fill="#1393fe" stroke="#1393fe"></path><path d="M275.9 128L296.8 233L318.4 135Z" fill="#008cff" stroke="#008cff"></path><path d="M248.4 258L183.9 291L283.8 306Z" fill="#006eff" stroke="#006eff"></path><path d="M625.6 215L615.7 211L597.7 224Z" fill="#006eff" stroke="#006eff"></path><path d="M597.7 224L591.7 133L517.7 171Z" fill="#33a0fb" stroke="#33a0fb"></path><path d="M183.9 291L262.9 374L277.4 345Z" fill="#33a0fb" stroke="#33a0fb"></path><path d="M277.4 345L262.9 374L336.8 393Z" fill="#2399fd" stroke="#2399fd"></path><path d="M338.8 94L275.9 128L318.4 135Z" fill="#006eff" stroke="#006eff"></path><path d="M268.9 403L334.4 440L336.8 393Z" fill="#1393fe" stroke="#1393fe"></path><path d="M336.8 393L334.4 440L423.8 408Z" fill="#006eff" stroke="#006eff"></path><path d="M491.2 454L522.7 437L474.8 395Z" fill="#0076ff" stroke="#0076ff"></path><path d="M491.2 454L474.8 395L423.8 408Z" fill="#008cff" stroke="#008cff"></path><path d="M474.8 395L522.7 437L495.2 366Z" fill="#006eff" stroke="#006eff"></path><path d="M606.7 373L628.2 271L574.2 324Z" fill="#006eff" stroke="#006eff"></path><path d="M574.2 324L628.2 271L557.2 266Z" fill="#008cff" stroke="#008cff"></path><path d="M390.3 469L491.2 454L423.8 408Z" fill="#33a0fb" stroke="#33a0fb"></path><path d="M628.2 271L625.6 215L597.7 224Z" fill="#008cff" stroke="#008cff"></path><path d="M615.7 211L591.7 133L597.7 224Z" fill="#4facf7" stroke="#4facf7"></path><path d="M625.6 215L624.2 208L615.7 211Z" fill="#4facf7" stroke="#4facf7"></path><path d="M624.2 208L591.7 133L615.7 211Z" fill="#006eff" stroke="#006eff"></path><path d="M547.2 132L522.2 73L489.8 94Z" fill="#33a0fb" stroke="#33a0fb"></path><path d="M489.8 94L522.2 73L466.2 81Z" fill="#008cff" stroke="#008cff"></path><path d="M594.7 85L522.2 73L547.2 132Z" fill="#0066ff" stroke="#0066ff"></path><path d="M434.3 0L360.8 42L433.3 93Z" fill="#1393fe" stroke="#1393fe"></path><path d="M240.9 485L268.9 403L216.9 473Z" fill="#0085ff" stroke="#0085ff"></path><path d="M262.9 374L268.9 403L336.8 393Z" fill="#33a0fb" stroke="#33a0fb"></path><path d="M334.4 440L390.3 469L423.8 408Z" fill="#4facf7" stroke="#4facf7"></path><path d="M522.7 437L606.7 373L495.2 366Z" fill="#007eff" stroke="#007eff"></path><path d="M275.9 128L215.9 190L296.8 233Z" fill="#0085ff" stroke="#0085ff"></path><path d="M237.4 254L183.9 291L248.4 258Z" fill="#0085ff" stroke="#0085ff"></path><path d="M373.3 82L360.8 42L338.8 94Z" fill="#0085ff" stroke="#0085ff"></path><path d="M338.8 94L248.4 53L275.9 128Z" fill="#2399fd" stroke="#2399fd"></path><path d="M434.3 0L433.3 93L466.2 81Z" fill="#0066ff" stroke="#0066ff"></path><path d="M591.7 133L594.7 85L547.2 132Z" fill="#008cff" stroke="#008cff"></path><path d="M657.2 121L604.2 116L591.7 133Z" fill="#0085ff" stroke="#0085ff"></path><path d="M182.4 119L205.4 169L275.9 128Z" fill="#008cff" stroke="#008cff"></path><path d="M275.9 128L205.4 169L215.9 190Z" fill="#007eff" stroke="#007eff"></path><path d="M140.4 255L183.9 291L237.4 254Z" fill="#0076ff" stroke="#0076ff"></path><path d="M140.4 255L237.4 254L215.9 190Z" fill="#4facf7" stroke="#4facf7"></path><path d="M604.2 116L594.7 85L591.7 133Z" fill="#1393fe" stroke="#1393fe"></path><path d="M479.8 0L434.3 0L466.2 81Z" fill="#2399fd" stroke="#2399fd"></path><path d="M657.2 121L608.2 98L604.2 116Z" fill="#008cff" stroke="#008cff"></path><path d="M604.2 116L608.2 98L594.7 85Z" fill="#007eff" stroke="#007eff"></path><path d="M657.2 121L591.7 133L624.2 208Z" fill="#4facf7" stroke="#4facf7"></path><path d="M268.9 403L295.8 482L334.4 440Z" fill="#4facf7" stroke="#4facf7"></path><path d="M334.4 440L295.8 482L390.3 469Z" fill="#0076ff" stroke="#0076ff"></path><path d="M294.8 484L295.8 482L240.9 485Z" fill="#0076ff" stroke="#0076ff"></path><path d="M445.8 525L526.2 496L491.2 454Z" fill="#1393fe" stroke="#1393fe"></path><path d="M491.2 454L526.2 496L522.7 437Z" fill="#4facf7" stroke="#4facf7"></path><path d="M522.7 437L609.7 473L606.7 373Z" fill="#2399fd" stroke="#2399fd"></path><path d="M445.8 525L491.2 454L390.3 469Z" fill="#1393fe" stroke="#1393fe"></path><path d="M288.4 497L294.8 484L240.9 485Z" fill="#007eff" stroke="#007eff"></path><path d="M371.8 540L378.3 540L390.3 469Z" fill="#41a6f9" stroke="#41a6f9"></path><path d="M479.8 0L466.2 81L522.2 73Z" fill="#4facf7" stroke="#4facf7"></path><path d="M533.2 0L479.8 0L522.2 73Z" fill="#1393fe" stroke="#1393fe"></path><path d="M415.8 540L445.8 525L390.3 469Z" fill="#0076ff" stroke="#0076ff"></path><path d="M686.1 188L624.2 208L625.6 215Z" fill="#2399fd" stroke="#2399fd"></path><path d="M686.1 188L657.2 121L624.2 208Z" fill="#0076ff" stroke="#0076ff"></path><path d="M615.2 0L569.7 0L594.7 85Z" fill="#1393fe" stroke="#1393fe"></path><path d="M569.7 0L533.2 0L522.2 73Z" fill="#0076ff" stroke="#0076ff"></path><path d="M707.1 203L686.1 188L625.6 215Z" fill="#007eff" stroke="#007eff"></path><path d="M707.1 203L625.6 215L628.2 271Z" fill="#008cff" stroke="#008cff"></path><path d="M341.8 0L248.4 53L360.8 42Z" fill="#41a6f9" stroke="#41a6f9"></path><path d="M360.8 42L248.4 53L338.8 94Z" fill="#2399fd" stroke="#2399fd"></path><path d="M434.3 0L341.8 0L360.8 42Z" fill="#0085ff" stroke="#0085ff"></path><path d="M240.9 485L295.8 482L268.9 403Z" fill="#0076ff" stroke="#0076ff"></path><path d="M371.8 540L390.3 469L329.4 540Z" fill="#1393fe" stroke="#1393fe"></path><path d="M378.3 540L415.8 540L390.3 469Z" fill="#33a0fb" stroke="#33a0fb"></path><path d="M445.8 525L551.2 540L526.2 496Z" fill="#41a6f9" stroke="#41a6f9"></path><path d="M220.9 55L182.4 119L275.9 128Z" fill="#008cff" stroke="#008cff"></path><path d="M205.4 169L159.4 162L215.9 190Z" fill="#0085ff" stroke="#0085ff"></path><path d="M569.7 0L522.2 73L594.7 85Z" fill="#0085ff" stroke="#0085ff"></path><path d="M551.2 540L609.7 473L526.2 496Z" fill="#007eff" stroke="#007eff"></path><path d="M526.2 496L609.7 473L522.7 437Z" fill="#4facf7" stroke="#4facf7"></path><path d="M711.6 366L721.1 294L628.2 271Z" fill="#1393fe" stroke="#1393fe"></path><path d="M182.4 119L159.4 162L205.4 169Z" fill="#006eff" stroke="#006eff"></path><path d="M390.3 469L295.8 482L329.4 540Z" fill="#33a0fb" stroke="#33a0fb"></path><path d="M609.7 473L623.2 463L606.7 373Z" fill="#0066ff" stroke="#0066ff"></path><path d="M159.4 162L140.4 255L215.9 190Z" fill="#0085ff" stroke="#0085ff"></path><path d="M216.9 473L268.9 403L176.4 425Z" fill="#41a6f9" stroke="#41a6f9"></path><path d="M329.4 540L295.8 482L294.8 484Z" fill="#006eff" stroke="#006eff"></path><path d="M623.2 463L669.2 409L606.7 373Z" fill="#0076ff" stroke="#0076ff"></path><path d="M686.1 188L699.6 134L657.2 121Z" fill="#007eff" stroke="#007eff"></path><path d="M721.1 294L707.1 203L628.2 271Z" fill="#2399fd" stroke="#2399fd"></path><path d="M252.4 4L220.9 55L248.4 53Z" fill="#007eff" stroke="#007eff"></path><path d="M248.4 53L220.9 55L275.9 128Z" fill="#008cff" stroke="#008cff"></path><path d="M268.9 403L262.9 374L176.4 425Z" fill="#0085ff" stroke="#0085ff"></path><path d="M288.4 497L329.4 540L294.8 484Z" fill="#33a0fb" stroke="#33a0fb"></path><path d="M214.9 540L329.4 540L288.4 497Z" fill="#41a6f9" stroke="#41a6f9"></path><path d="M176.4 425L262.9 374L163.4 411Z" fill="#4facf7" stroke="#4facf7"></path><path d="M240.9 485L214.4 523L288.4 497Z" fill="#006eff" stroke="#006eff"></path><path d="M615.2 0L594.7 85L639.6 0Z" fill="#007eff" stroke="#007eff"></path><path d="M163.4 411L262.9 374L183.9 291Z" fill="#0085ff" stroke="#0085ff"></path><path d="M707.1 203L713.6 186L686.1 188Z" fill="#007eff" stroke="#007eff"></path><path d="M639.6 0L594.7 85L608.2 98Z" fill="#008cff" stroke="#008cff"></path><path d="M800.6 212L713.6 186L707.1 203Z" fill="#0066ff" stroke="#0066ff"></path><path d="M711.6 366L628.2 271L606.7 373Z" fill="#007eff" stroke="#007eff"></path><path d="M98.9 259L125.4 278L140.4 255Z" fill="#008cff" stroke="#008cff"></path><path d="M140.4 255L125.4 278L183.9 291Z" fill="#2399fd" stroke="#2399fd"></path><path d="M653.6 540L659.2 448L623.2 463Z" fill="#008cff" stroke="#008cff"></path><path d="M623.2 463L659.2 448L669.2 409Z" fill="#1393fe" stroke="#1393fe"></path><path d="M669.2 409L711.6 366L606.7 373Z" fill="#33a0fb" stroke="#33a0fb"></path><path d="M130.9 360L163.4 411L183.9 291Z" fill="#41a6f9" stroke="#41a6f9"></path><path d="M137.4 540L214.4 523L216.9 473Z" fill="#4facf7" stroke="#4facf7"></path><path d="M713.6 186L699.6 134L686.1 188Z" fill="#006eff" stroke="#006eff"></path><path d="M659.2 448L682.6 422L669.2 409Z" fill="#0066ff" stroke="#0066ff"></path><path d="M341.8 0L258.9 4L248.4 53Z" fill="#33a0fb" stroke="#33a0fb"></path><path d="M711.6 371L711.6 366L669.2 409Z" fill="#0066ff" stroke="#0066ff"></path><path d="M415.8 540L551.2 540L445.8 525Z" fill="#4facf7" stroke="#4facf7"></path><path d="M609.7 473L653.6 540L623.2 463Z" fill="#4facf7" stroke="#4facf7"></path><path d="M682.6 422L711.6 371L669.2 409Z" fill="#0085ff" stroke="#0085ff"></path><path d="M763.6 372L763.1 281L721.1 294Z" fill="#0085ff" stroke="#0085ff"></path><path d="M182.4 119L165.4 94L159.4 162Z" fill="#41a6f9" stroke="#41a6f9"></path><path d="M90.5 252L98.9 259L140.4 255Z" fill="#0066ff" stroke="#0066ff"></path><path d="M220.9 55L165.4 94L182.4 119Z" fill="#006eff" stroke="#006eff"></path><path d="M156.9 65L165.4 94L220.9 55Z" fill="#006eff" stroke="#006eff"></path><path d="M246.4 0L252.4 4L258.9 4Z" fill="#2399fd" stroke="#2399fd"></path><path d="M258.9 4L252.4 4L248.4 53Z" fill="#0085ff" stroke="#0085ff"></path><path d="M125.4 278L130.9 360L183.9 291Z" fill="#0076ff" stroke="#0076ff"></path><path d="M341.8 0L246.4 0L258.9 4Z" fill="#006eff" stroke="#006eff"></path><path d="M252.4 4L246.4 0L220.9 55Z" fill="#008cff" stroke="#008cff"></path><path d="M639.6 0L608.2 98L703.6 63Z" fill="#0076ff" stroke="#0076ff"></path><path d="M90.5 252L140.4 255L77.9 171Z" fill="#41a6f9" stroke="#41a6f9"></path><path d="M125.4 278L85.5 319L130.9 360Z" fill="#0066ff" stroke="#0066ff"></path><path d="M188.9 0L156.9 65L220.9 55Z" fill="#4facf7" stroke="#4facf7"></path><path d="M78.9 97L77.9 171L159.4 162Z" fill="#006eff" stroke="#006eff"></path><path d="M551.2 540L604.2 540L609.7 473Z" fill="#2399fd" stroke="#2399fd"></path><path d="M729.6 448L731.1 438L682.6 422Z" fill="#007eff" stroke="#007eff"></path><path d="M77.9 171L140.4 255L159.4 162Z" fill="#006eff" stroke="#006eff"></path><path d="M98.9 259L85.5 319L125.4 278Z" fill="#33a0fb" stroke="#33a0fb"></path><path d="M214.9 540L214.4 523L137.4 540Z" fill="#0085ff" stroke="#0085ff"></path><path d="M137.4 540L216.9 473L176.4 425Z" fill="#2399fd" stroke="#2399fd"></path><path d="M216.9 473L214.4 523L240.9 485Z" fill="#41a6f9" stroke="#41a6f9"></path><path d="M703.6 63L608.2 98L657.2 121Z" fill="#007eff" stroke="#007eff"></path><path d="M604.2 540L614.7 540L609.7 473Z" fill="#2399fd" stroke="#2399fd"></path><path d="M763.6 372L721.1 294L711.6 366Z" fill="#1393fe" stroke="#1393fe"></path><path d="M721.1 294L763.1 281L707.1 203Z" fill="#008cff" stroke="#008cff"></path><path d="M773.1 94L717.6 86L699.6 134Z" fill="#0066ff" stroke="#0066ff"></path><path d="M763.6 372L711.6 366L711.6 371Z" fill="#1393fe" stroke="#1393fe"></path><path d="M773.1 94L699.6 134L713.6 186Z" fill="#0076ff" stroke="#0076ff"></path><path d="M699.6 134L717.6 86L657.2 121Z" fill="#2399fd" stroke="#2399fd"></path><path d="M717.6 86L703.6 63L657.2 121Z" fill="#33a0fb" stroke="#33a0fb"></path><path d="M62.9 294L85.5 319L98.9 259Z" fill="#0076ff" stroke="#0076ff"></path><path d="M130.9 360L66.9 444L163.4 411Z" fill="#0085ff" stroke="#0085ff"></path><path d="M137.4 540L176.4 425L87.9 504Z" fill="#008cff" stroke="#008cff"></path><path d="M214.4 523L214.9 540L288.4 497Z" fill="#0066ff" stroke="#0066ff"></path><path d="M246.4 0L188.9 0L220.9 55Z" fill="#007eff" stroke="#007eff"></path><path d="M717.6 86L715.1 59L703.6 63Z" fill="#41a6f9" stroke="#41a6f9"></path><path d="M703.6 63L701.1 0L639.6 0Z" fill="#1393fe" stroke="#1393fe"></path><path d="M773.1 94L715.1 59L717.6 86Z" fill="#1393fe" stroke="#1393fe"></path><path d="M729.6 448L682.6 422L724.1 458Z" fill="#41a6f9" stroke="#41a6f9"></path><path d="M682.6 422L731.1 438L711.6 371Z" fill="#007eff" stroke="#007eff"></path><path d="M750.1 424L763.6 372L711.6 371Z" fill="#0066ff" stroke="#0066ff"></path><path d="M78.9 97L159.4 162L165.4 94Z" fill="#006eff" stroke="#006eff"></path><path d="M90.5 252L62.9 294L98.9 259Z" fill="#0076ff" stroke="#0076ff"></path><path d="M58.5 167L77.9 171L50.5 123Z" fill="#2399fd" stroke="#2399fd"></path><path d="M724.1 458L682.6 422L659.2 448Z" fill="#2399fd" stroke="#2399fd"></path><path d="M731.1 438L750.1 424L711.6 371Z" fill="#1393fe" stroke="#1393fe"></path><path d="M653.6 540L724.1 458L659.2 448Z" fill="#008cff" stroke="#008cff"></path><path d="M614.7 540L653.6 540L609.7 473Z" fill="#2399fd" stroke="#2399fd"></path><path d="M0 271L62.9 294L90.5 252Z" fill="#0076ff" stroke="#0076ff"></path><path d="M85.5 319L62.9 332L130.9 360Z" fill="#007eff" stroke="#007eff"></path><path d="M778.6 459L750.1 424L729.6 448Z" fill="#41a6f9" stroke="#41a6f9"></path><path d="M729.6 448L750.1 424L731.1 438Z" fill="#006eff" stroke="#006eff"></path><path d="M62.9 294L62.9 332L85.5 319Z" fill="#0076ff" stroke="#0076ff"></path><path d="M188.9 0L159.4 0L156.9 65Z" fill="#008cff" stroke="#008cff"></path><path d="M78.9 97L165.4 94L156.9 65Z" fill="#008cff" stroke="#008cff"></path><path d="M77.9 171L58.5 167L90.5 252Z" fill="#41a6f9" stroke="#41a6f9"></path><path d="M0 383L53.5 370L62.9 332Z" fill="#1393fe" stroke="#1393fe"></path><path d="M812.1 261L800.6 212L763.1 281Z" fill="#0076ff" stroke="#0076ff"></path><path d="M763.1 281L800.6 212L707.1 203Z" fill="#0085ff" stroke="#0085ff"></path><path d="M827.6 0L701.1 0L715.1 59Z" fill="#41a6f9" stroke="#41a6f9"></path><path d="M715.1 59L701.1 0L703.6 63Z" fill="#4facf7" stroke="#4facf7"></path><path d="M111.9 0L78.9 97L156.9 65Z" fill="#0066ff" stroke="#0066ff"></path><path d="M800.6 212L773.1 94L713.6 186Z" fill="#006eff" stroke="#006eff"></path><path d="M0 288L62.9 332L62.9 294Z" fill="#007eff" stroke="#007eff"></path><path d="M62.9 332L53.5 370L130.9 360Z" fill="#33a0fb" stroke="#33a0fb"></path><path d="M819.1 319L812.1 261L763.1 281Z" fill="#008cff" stroke="#008cff"></path><path d="M800.6 212L851.1 129L773.1 94Z" fill="#4facf7" stroke="#4facf7"></path><path d="M819.1 319L763.1 281L763.6 372Z" fill="#0085ff" stroke="#0085ff"></path><path d="M18.5 41L50.5 123L78.9 97Z" fill="#33a0fb" stroke="#33a0fb"></path><path d="M78.9 97L50.5 123L77.9 171Z" fill="#1393fe" stroke="#1393fe"></path><path d="M0 226L0 271L90.5 252Z" fill="#0085ff" stroke="#0085ff"></path><path d="M807.6 378L819.1 319L763.6 372Z" fill="#0085ff" stroke="#0085ff"></path><path d="M724.1 458L761.6 475L729.6 448Z" fill="#0076ff" stroke="#0076ff"></path><path d="M750.1 424L807.6 378L763.6 372Z" fill="#1393fe" stroke="#1393fe"></path><path d="M756.1 540L761.6 475L724.1 458Z" fill="#33a0fb" stroke="#33a0fb"></path><path d="M778.6 459L807.6 378L750.1 424Z" fill="#006eff" stroke="#006eff"></path><path d="M87.9 504L176.4 425L163.4 411Z" fill="#0066ff" stroke="#0066ff"></path><path d="M53.5 370L66.9 444L130.9 360Z" fill="#006eff" stroke="#006eff"></path><path d="M761.6 475L778.6 459L729.6 448Z" fill="#4facf7" stroke="#4facf7"></path><path d="M843.1 212L827.6 207L844.6 221Z" fill="#2399fd" stroke="#2399fd"></path><path d="M812.1 261L827.6 207L800.6 212Z" fill="#0066ff" stroke="#0066ff"></path><path d="M159.4 0L111.9 0L156.9 65Z" fill="#41a6f9" stroke="#41a6f9"></path><path d="M66.9 444L87.9 504L163.4 411Z" fill="#1393fe" stroke="#1393fe"></path><path d="M844.6 221L812.1 261L854.5 243Z" fill="#007eff" stroke="#007eff"></path><path d="M844.6 221L827.6 207L812.1 261Z" fill="#0066ff" stroke="#0066ff"></path><path d="M842.6 97L826.6 70L773.1 94Z" fill="#33a0fb" stroke="#33a0fb"></path><path d="M854.5 243L812.1 261L819.1 319Z" fill="#0085ff" stroke="#0085ff"></path><path d="M0 226L90.5 252L58.5 167Z" fill="#007eff" stroke="#007eff"></path><path d="M53.5 370L4.5 413L66.9 444Z" fill="#007eff" stroke="#007eff"></path><path d="M84.9 540L92.5 540L87.9 504Z" fill="#0076ff" stroke="#0076ff"></path><path d="M0 271L0 288L62.9 294Z" fill="#006eff" stroke="#006eff"></path><path d="M0 153L0 226L58.5 167Z" fill="#007eff" stroke="#007eff"></path><path d="M873.5 398L846.1 346L807.6 378Z" fill="#0066ff" stroke="#0066ff"></path><path d="M807.6 378L846.1 346L819.1 319Z" fill="#0076ff" stroke="#0076ff"></path><path d="M846.1 346L854.5 243L819.1 319Z" fill="#2399fd" stroke="#2399fd"></path><path d="M939.5 207L915.5 151L843.1 212Z" fill="#33a0fb" stroke="#33a0fb"></path><path d="M653.6 540L756.1 540L724.1 458Z" fill="#41a6f9" stroke="#41a6f9"></path><path d="M761.6 475L800.1 485L778.6 459Z" fill="#0076ff" stroke="#0076ff"></path><path d="M778.6 459L845.1 452L807.6 378Z" fill="#008cff" stroke="#008cff"></path><path d="M65.5 506L87.9 504L66.9 444Z" fill="#4facf7" stroke="#4facf7"></path><path d="M87.9 504L92.5 540L137.4 540Z" fill="#0085ff" stroke="#0085ff"></path><path d="M24.5 456L65.5 506L66.9 444Z" fill="#33a0fb" stroke="#33a0fb"></path><path d="M111.9 0L73.5 0L78.9 97Z" fill="#0066ff" stroke="#0066ff"></path><path d="M50.5 123L0 153L58.5 167Z" fill="#008cff" stroke="#008cff"></path><path d="M790.6 540L800.1 485L761.6 475Z" fill="#008cff" stroke="#008cff"></path><path d="M0 54L0 153L50.5 123Z" fill="#0085ff" stroke="#0085ff"></path><path d="M65.5 506L84.9 540L87.9 504Z" fill="#33a0fb" stroke="#33a0fb"></path><path d="M0 288L0 383L62.9 332Z" fill="#008cff" stroke="#008cff"></path><path d="M851.1 129L800.6 212L827.6 207Z" fill="#006eff" stroke="#006eff"></path><path d="M773.1 94L827.6 0L715.1 59Z" fill="#1393fe" stroke="#1393fe"></path><path d="M851.1 129L827.6 207L843.1 212Z" fill="#4facf7" stroke="#4facf7"></path><path d="M4.5 413L24.5 456L66.9 444Z" fill="#006eff" stroke="#006eff"></path><path d="M65.5 506L0 540L84.9 540Z" fill="#007eff" stroke="#007eff"></path><path d="M858.5 123L915.5 151L894.1 114Z" fill="#1393fe" stroke="#1393fe"></path><path d="M0 383L0 399L53.5 370Z" fill="#008cff" stroke="#008cff"></path><path d="M0 399L4.5 413L53.5 370Z" fill="#2399fd" stroke="#2399fd"></path><path d="M851.1 129L842.6 97L773.1 94Z" fill="#41a6f9" stroke="#41a6f9"></path><path d="M858.5 123L851.1 129L915.5 151Z" fill="#0085ff" stroke="#0085ff"></path><path d="M851.1 129L858.5 123L842.6 97Z" fill="#41a6f9" stroke="#41a6f9"></path><path d="M882.5 35L827.6 0L826.6 70Z" fill="#0076ff" stroke="#0076ff"></path><path d="M756.1 540L790.6 540L761.6 475Z" fill="#0066ff" stroke="#0066ff"></path><path d="M800.1 485L845.1 452L778.6 459Z" fill="#4facf7" stroke="#4facf7"></path><path d="M73.5 0L18.5 41L78.9 97Z" fill="#007eff" stroke="#007eff"></path><path d="M876.5 490L845.1 452L800.1 485Z" fill="#33a0fb" stroke="#33a0fb"></path><path d="M846.1 346L910.5 341L854.5 243Z" fill="#33a0fb" stroke="#33a0fb"></path><path d="M845.1 452L873.5 398L807.6 378Z" fill="#006eff" stroke="#006eff"></path><path d="M915.5 151L851.1 129L843.1 212Z" fill="#1393fe" stroke="#1393fe"></path><path d="M0 44L0 54L18.5 41Z" fill="#008cff" stroke="#008cff"></path><path d="M18.5 41L0 54L50.5 123Z" fill="#2399fd" stroke="#2399fd"></path><path d="M0 399L0 470L4.5 413Z" fill="#41a6f9" stroke="#41a6f9"></path><path d="M4.5 413L0 470L24.5 456Z" fill="#0066ff" stroke="#0066ff"></path><path d="M24.5 456L0 470L65.5 506Z" fill="#0085ff" stroke="#0085ff"></path><path d="M0 0L0 44L18.5 41Z" fill="#0076ff" stroke="#0076ff"></path><path d="M875.1 61L826.6 70L842.6 97Z" fill="#006eff" stroke="#006eff"></path><path d="M826.6 70L827.6 0L773.1 94Z" fill="#4facf7" stroke="#4facf7"></path><path d="M790.6 540L817.1 540L800.1 485Z" fill="#0076ff" stroke="#0076ff"></path><path d="M845.1 452L876.5 490L873.5 398Z" fill="#0076ff" stroke="#0076ff"></path><path d="M843.1 212L844.6 221L939.5 207Z" fill="#33a0fb" stroke="#33a0fb"></path><path d="M858.5 123L894.1 114L842.6 97Z" fill="#2399fd" stroke="#2399fd"></path><path d="M894.1 114L875.1 61L842.6 97Z" fill="#0076ff" stroke="#0076ff"></path><path d="M935.5 381L910.5 341L873.5 398Z" fill="#2399fd" stroke="#2399fd"></path><path d="M873.5 398L910.5 341L846.1 346Z" fill="#0076ff" stroke="#0076ff"></path><path d="M73.5 0L0 0L18.5 41Z" fill="#1393fe" stroke="#1393fe"></path><path d="M939.5 207L844.6 221L854.5 243Z" fill="#1393fe" stroke="#1393fe"></path><path d="M960 103L882.5 35L875.1 61Z" fill="#0085ff" stroke="#0085ff"></path><path d="M817.1 540L876.5 490L800.1 485Z" fill="#006eff" stroke="#006eff"></path><path d="M0 470L0 540L65.5 506Z" fill="#0076ff" stroke="#0076ff"></path><path d="M894.1 0L882.5 35L924.5 0Z" fill="#0066ff" stroke="#0066ff"></path><path d="M875.1 61L882.5 35L826.6 70Z" fill="#0066ff" stroke="#0066ff"></path><path d="M960 240L939.5 207L854.5 243Z" fill="#41a6f9" stroke="#41a6f9"></path><path d="M960 103L875.1 61L894.1 114Z" fill="#1393fe" stroke="#1393fe"></path><path d="M960 398L935.5 381L960 400Z" fill="#0076ff" stroke="#0076ff"></path><path d="M960 283L960 240L854.5 243Z" fill="#1393fe" stroke="#1393fe"></path><path d="M960 283L854.5 243L910.5 341Z" fill="#0076ff" stroke="#0076ff"></path><path d="M939.5 207L960 169L915.5 151Z" fill="#006eff" stroke="#006eff"></path><path d="M960 303L960 283L910.5 341Z" fill="#007eff" stroke="#007eff"></path><path d="M960 103L894.1 114L915.5 151Z" fill="#008cff" stroke="#008cff"></path><path d="M882.5 35L894.1 0L827.6 0Z" fill="#008cff" stroke="#008cff"></path><path d="M935.5 381L960 303L910.5 341Z" fill="#007eff" stroke="#007eff"></path><path d="M960 400L935.5 381L873.5 398Z" fill="#2399fd" stroke="#2399fd"></path><path d="M817.1 540L883.5 540L876.5 490Z" fill="#0066ff" stroke="#0066ff"></path><path d="M960 240L960 169L939.5 207Z" fill="#1393fe" stroke="#1393fe"></path><path d="M960 400L873.5 398L876.5 490Z" fill="#2399fd" stroke="#2399fd"></path><path d="M935.5 381L960 398L960 303Z" fill="#006eff" stroke="#006eff"></path><path d="M960 488L960 400L876.5 490Z" fill="#41a6f9" stroke="#41a6f9"></path><path d="M960 169L960 103L915.5 151Z" fill="#008cff" stroke="#008cff"></path><path d="M960 103L924.5 0L882.5 35Z" fill="#0085ff" stroke="#0085ff"></path><path d="M883.5 540L960 488L876.5 490Z" fill="#0085ff" stroke="#0085ff"></path><path d="M960 103L960 5L924.5 0Z" fill="#2399fd" stroke="#2399fd"></path><path d="M960 5L960 0L924.5 0Z" fill="#007eff" stroke="#007eff"></path><path d="M883.5 540L960 540L960 488Z" fill="#33a0fb" stroke="#33a0fb"></path></g></svg>