<svg id="visual" viewBox="0 0 600 900" width="600" height="900" xmlns="http://www.w3.org/2000/svg" xmlns:xlink="http://www.w3.org/1999/xlink" version="1.1"><rect width="600" height="900" fill="#ffffff"></rect><g><g transform="translate(295 274)"><path d="M0 -65.7L46.4 -46.4L65.7 0L46.4 46.4L0 65.7L-46.4 46.4L-65.7 0L-46.4 -46.4Z" fill="none" stroke="#4FACF7" stroke-width="2"></path></g><g transform="translate(64 762)"><path d="M0 -49L34.6 -34.6L49 0L34.6 34.6L0 49L-34.6 34.6L-49 0L-34.6 -34.6Z" fill="none" stroke="#4FACF7" stroke-width="2"></path></g><g transform="translate(158 120)"><path d="M0 -19L13.4 -13.4L19 0L13.4 13.4L0 19L-13.4 13.4L-19 0L-13.4 -13.4Z" stroke="#4FACF7" fill="none" stroke-width="2"></path></g><g transform="translate(581 311)"><path d="M0 -37L26.2 -26.2L37 0L26.2 26.2L0 37L-26.2 26.2L-37 0L-26.2 -26.2Z" stroke="#4FACF7" fill="none" stroke-width="2"></path></g><g transform="translate(403 532)"><path d="M0 -45L31.8 -31.8L45 0L31.8 31.8L0 45L-31.8 31.8L-45 0L-31.8 -31.8Z" stroke="#4FACF7" fill="none" stroke-width="2"></path></g><g transform="translate(571 885)"><path d="M0 -64L45.3 -45.3L64 0L45.3 45.3L0 64L-45.3 45.3L-64 0L-45.3 -45.3Z" stroke="#4FACF7" fill="none" stroke-width="2"></path></g><g transform="translate(180 547)"><path d="M0 -9L6.4 -6.4L9 0L6.4 6.4L0 9L-6.4 6.4L-9 0L-6.4 -6.4Z" stroke="#4FACF7" fill="none" stroke-width="2"></path></g><g transform="translate(284 877)"><path d="M0 -44L31.1 -31.1L44 0L31.1 31.1L0 44L-31.1 31.1L-44 0L-31.1 -31.1Z" stroke="#4FACF7" fill="none" stroke-width="2"></path></g><g transform="translate(303 107)"><path d="M0 -42L29.7 -29.7L42 0L29.7 29.7L0 42L-29.7 29.7L-42 0L-29.7 -29.7Z" stroke="#4FACF7" fill="none" stroke-width="2"></path></g><g transform="translate(536 458)"><path d="M0 -12L8.5 -8.5L12 0L8.5 8.5L0 12L-8.5 8.5L-12 0L-8.5 -8.5Z" stroke="#4FACF7" fill="none" stroke-width="2"></path></g><g transform="translate(31 342)"><path d="M0 -38L26.9 -26.9L38 0L26.9 26.9L0 38L-26.9 26.9L-38 0L-26.9 -26.9Z" stroke="#4FACF7" fill="none" stroke-width="2"></path></g><g transform="translate(446 8)"><path d="M0 -44L31.1 -31.1L44 0L31.1 31.1L0 44L-31.1 31.1L-44 0L-31.1 -31.1Z" stroke="#4FACF7" fill="none" stroke-width="2"></path></g><g transform="translate(439 341)"><path d="M0 -25L17.7 -17.7L25 0L17.7 17.7L0 25L-17.7 17.7L-25 0L-17.7 -17.7Z" stroke="#4FACF7" fill="none" stroke-width="2"></path></g><g transform="translate(330 734)"><path d="M0 -62L43.8 -43.8L62 0L43.8 43.8L0 62L-43.8 43.8L-62 0L-43.8 -43.8Z" stroke="#4FACF7" fill="none" stroke-width="2"></path></g><g transform="translate(191 389)"><path d="M0 -44L31.1 -31.1L44 0L31.1 31.1L0 44L-31.1 31.1L-44 0L-31.1 -31.1Z" stroke="#4FACF7" fill="none" stroke-width="2"></path></g><g transform="translate(504 196)"><path d="M0 -15L10.6 -10.6L15 0L10.6 10.6L0 15L-10.6 10.6L-15 0L-10.6 -10.6Z" stroke="#4FACF7" fill="none" stroke-width="2"></path></g><g transform="translate(417 863)"><path d="M0 -20L14.1 -14.1L20 0L14.1 14.1L0 20L-14.1 14.1L-20 0L-14.1 -14.1Z" stroke="#4FACF7" fill="none" stroke-width="2"></path></g><g transform="translate(2 646)"><path d="M0 -9L6.4 -6.4L9 0L6.4 6.4L0 9L-6.4 6.4L-9 0L-6.4 -6.4Z" stroke="#4FACF7" fill="none" stroke-width="2"></path></g><g transform="translate(1 54)"><path d="M0 -64L45.3 -45.3L64 0L45.3 45.3L0 64L-45.3 45.3L-64 0L-45.3 -45.3Z" stroke="#4FACF7" fill="none" stroke-width="2"></path></g><g transform="translate(503 714)"><path d="M0 -8L5.7 -5.7L8 0L5.7 5.7L0 8L-5.7 5.7L-8 0L-5.7 -5.7Z" stroke="#4FACF7" fill="none" stroke-width="2"></path></g><g transform="translate(588 20)"><path d="M0 -43L30.4 -30.4L43 0L30.4 30.4L0 43L-30.4 30.4L-43 0L-30.4 -30.4Z" stroke="#4FACF7" fill="none" stroke-width="2"></path></g><g transform="translate(179 689)"><path d="M0 -46L32.5 -32.5L46 0L32.5 32.5L0 46L-32.5 32.5L-46 0L-32.5 -32.5Z" stroke="#4FACF7" fill="none" stroke-width="2"></path></g><g transform="translate(135 896)"><path d="M0 -22L15.6 -15.6L22 0L15.6 15.6L0 22L-15.6 15.6L-22 0L-15.6 -15.6Z" stroke="#4FACF7" fill="none" stroke-width="2"></path></g><g transform="translate(1 196)"><path d="M0 -57L40.3 -40.3L57 0L40.3 40.3L0 57L-40.3 40.3L-57 0L-40.3 -40.3Z" stroke="#4FACF7" fill="none" stroke-width="2"></path></g><g transform="translate(3 890)"><path d="M0 -30L21.2 -21.2L30 0L21.2 21.2L0 30L-21.2 21.2L-30 0L-21.2 -21.2Z" stroke="#4FACF7" fill="none" stroke-width="2"></path></g><g transform="translate(7 495)"><path d="M0 -29L20.5 -20.5L29 0L20.5 20.5L0 29L-20.5 20.5L-29 0L-20.5 -20.5Z" stroke="#4FACF7" fill="none" stroke-width="2"></path></g><g transform="translate(553 590)"><path d="M0 -22L15.6 -15.6L22 0L15.6 15.6L0 22L-15.6 15.6L-22 0L-15.6 -15.6Z" stroke="#4FACF7" fill="none" stroke-width="2"></path></g></g></svg>